<svg width="32" height="32" viewBox="0 0 32 32" fill="none" xmlns="http://www.w3.org/2000/svg">
    <path fill-rule="evenodd" clip-rule="evenodd"
          d="M7 16.0194V28.0194C7 29.1194 7.9 30.0194 9 30.0194H19C20.1 30.0194 21 29.1194 21 28.0194V16.0194H7ZM9 22.0194V20.0194L19 20.0194V22.0194L9 22.0194ZM9 26.0194V24.0194H15V26.0194H9Z"
          fill="#ff85b3"/>
    <path fill-rule="evenodd" clip-rule="evenodd"
          d="M19.4011 3.13062L23.7477 1.96593L24.2654 3.89779L8.81055 8.03889L8.29291 6.10704L12.6396 4.94235L13.3467 3.71761L18.1763 2.42351L19.4011 3.13062Z"
          fill="#ff85b3"/>
    <path fill-rule="evenodd" clip-rule="evenodd"
          d="M12.4302 9.13955L10 14H18V11H20.4985C20.8141 11 21.1112 10.851 21.2999 10.5981L22.7999 8.58843C23.2935 7.92711 22.8189 6.9863 21.9937 6.99031L20.4228 6.99794L12.4302 9.13955ZM13.7418 6.71756L18.0733 5.55695C17.2516 5.24198 16.342 5.21932 15.5 5.5C14.8045 5.73183 14.1963 6.15686 13.7418 6.71756Z"
          fill="#ff85b3"/>
</svg>